<svg width="438" height="462" viewBox="0 0 438 462" fill="none" xmlns="http://www.w3.org/2000/svg">
<ellipse cx="210.5" cy="245" rx="210.5" ry="211" fill="url(#paint0_linear_601_104)" fill-opacity="0.4"/>
<g opacity="0.49">
<path d="M413.086 78.3358C426.311 65.0834 426.311 43.597 413.086 30.3446C399.86 17.0922 378.418 17.0922 365.192 30.3446C351.967 43.597 351.967 65.0834 365.192 78.3358C378.418 91.5882 399.86 91.5882 413.086 78.3358Z" fill="#B5B5B5"/>
<path d="M392.625 69.5271V74.2216H386.669V69.7347C382.446 69.4792 378.355 68.3416 375.821 66.7727L379.028 59.4995C381.817 61.1481 385.53 62.206 388.78 62.206C391.609 62.206 392.625 61.6152 392.625 60.5972C392.625 56.8728 376.287 59.8787 376.287 48.8371C376.287 44.0548 379.749 40.0349 386.673 39.0649V34.4542H392.629V38.9771C395.752 39.2725 398.791 40.0788 401.198 41.4321L398.202 48.6654C395.286 47.1844 392.545 46.4659 389.967 46.4659C387.051 46.4659 386.123 47.3122 386.123 48.3301C386.123 51.8829 402.461 48.9209 402.461 59.8348C402.461 64.4055 399.166 68.3815 392.625 69.5271Z" fill="white"/>
<path d="M330.267 120.995C341.598 120.995 350.783 111.791 350.783 100.437C350.783 89.0825 341.598 79.8782 330.267 79.8782C318.936 79.8782 309.75 89.0825 309.75 100.437C309.75 111.791 318.936 120.995 330.267 120.995Z" fill="#B5B5B5"/>
<path d="M332.378 109.638V112.48H328.773V109.762C326.215 109.606 323.733 108.915 322.199 107.965L324.144 103.558C325.833 104.556 328.083 105.199 330.051 105.199C331.765 105.199 332.378 104.84 332.378 104.225C332.378 101.969 322.478 103.79 322.478 97.0992C322.478 94.2011 324.574 91.766 328.769 91.1792V88.3849H332.374V91.1273C334.266 91.307 336.107 91.794 337.565 92.6163L335.748 96.9994C333.983 96.1013 332.322 95.6661 330.761 95.6661C328.996 95.6661 328.434 96.1811 328.434 96.7958C328.434 98.9475 338.334 97.1551 338.334 103.766C338.334 106.536 336.342 108.947 332.378 109.638Z" fill="white"/>
<path d="M400.427 117.231C402.402 108.697 397.099 100.174 388.582 98.1948C380.064 96.2156 371.559 101.53 369.584 110.064C367.609 118.599 372.912 127.122 381.429 129.101C389.946 131.08 398.452 125.766 400.427 117.231Z" fill="#B5B5B5"/>
<path d="M386.641 120.719V122.915H383.856V120.819C381.885 120.699 379.968 120.169 378.785 119.434L380.283 116.033C381.586 116.803 383.323 117.298 384.841 117.298C386.163 117.298 386.637 117.023 386.637 116.548C386.637 114.807 379 116.213 379 111.051C379 108.816 380.618 106.935 383.856 106.484V104.329H386.641V106.444C388.099 106.584 389.521 106.959 390.649 107.594L389.247 110.975C387.884 110.285 386.601 109.945 385.398 109.945C384.036 109.945 383.602 110.34 383.602 110.815C383.602 112.476 391.238 111.091 391.238 116.193C391.238 118.328 389.701 120.188 386.641 120.719Z" fill="white"/>
<path d="M321.291 44.4899H318.977V61.1162H321.291V44.4899Z" fill="#B5B5B5"/>
<path d="M328.43 51.6434H311.838V53.9627H328.43V51.6434Z" fill="#B5B5B5"/>
<path d="M341.943 0H338.465V24.9734H341.943V0Z" fill="#B5B5B5"/>
<path d="M352.667 10.7422H327.745V14.2271H352.667V10.7422Z" fill="#B5B5B5"/>
<path d="M420.097 127.701H417.464V146.611H420.097V127.701Z" fill="#B5B5B5"/>
<path d="M428.216 135.837H409.345V138.475H428.216V135.837Z" fill="#B5B5B5"/>
</g>
<path opacity="0.4" d="M211.177 142.168C220.76 132.565 220.76 116.996 211.177 107.394C201.594 97.791 186.057 97.791 176.474 107.394C166.89 116.996 166.89 132.565 176.474 142.168C186.057 151.771 201.594 151.771 211.177 142.168Z" fill="#B5B5B5"/>
<path opacity="0.4" d="M252.388 449.084C267.64 449.084 280.004 436.694 280.004 421.411C280.004 406.128 267.64 393.738 252.388 393.738C237.135 393.738 224.771 406.128 224.771 421.411C224.771 436.694 237.135 449.084 252.388 449.084Z" fill="#B5B5B5"/>
<path d="M201.247 462C200.957 462 200.668 461.997 200.378 461.994L200.391 461.197C201.702 461.219 203.032 461.19 204.336 461.114L204.384 461.911C203.344 461.968 202.29 462 201.247 462ZM196.378 461.78C195.051 461.659 193.715 461.487 192.407 461.267L192.538 460.482C193.826 460.699 195.144 460.868 196.448 460.989L196.378 461.78ZM208.368 461.525L208.263 460.734C209.561 460.559 210.869 460.332 212.151 460.061L212.317 460.843C211.015 461.117 209.688 461.346 208.368 461.525ZM188.484 460.45C187.192 460.132 185.897 459.755 184.634 459.341L184.882 458.582C186.123 458.993 187.399 459.36 188.672 459.676L188.484 460.45ZM216.199 459.857L215.976 459.092C217.233 458.722 218.493 458.298 219.715 457.836L219.995 458.582C218.751 459.054 217.475 459.481 216.199 459.857ZM180.879 457.938C179.651 457.425 178.426 456.857 177.239 456.254L177.598 455.543C178.766 456.14 179.972 456.698 181.184 457.201L180.879 457.938ZM223.683 457.02L223.346 456.299C224.532 455.744 225.71 455.135 226.852 454.491L227.243 455.186C226.082 455.84 224.886 456.459 223.683 457.02ZM173.739 454.297C172.603 453.605 171.479 452.859 170.397 452.081L170.862 451.433C171.928 452.199 173.035 452.932 174.155 453.614L173.739 454.297ZM230.651 453.085L230.209 452.422C231.3 451.692 232.373 450.911 233.404 450.104L233.894 450.732C232.85 451.551 231.759 452.342 230.651 453.085ZM167.228 449.622C166.207 448.768 165.208 447.859 164.256 446.931L164.813 446.361C165.752 447.276 166.735 448.169 167.741 449.013L167.228 449.622ZM236.952 448.14L236.417 447.55C237.384 446.667 238.329 445.733 239.23 444.779L239.809 445.324C238.896 446.297 237.935 447.244 236.952 448.14ZM161.494 444.023C160.613 443.026 159.76 441.98 158.958 440.918L159.591 440.436C160.381 441.482 161.221 442.512 162.089 443.497L161.494 444.023ZM242.447 442.305L241.83 441.804C242.657 440.781 243.452 439.716 244.197 438.641L244.849 439.094C244.095 440.185 243.287 441.265 242.447 442.305ZM156.664 437.627C155.942 436.505 155.254 435.344 154.624 434.174L155.324 433.795C155.948 434.946 156.623 436.091 157.335 437.194L156.664 437.627ZM247.007 435.705L246.319 435.303C246.981 434.168 247.611 432.998 248.184 431.818L248.9 432.169C248.318 433.364 247.678 434.554 247.007 435.705ZM152.852 430.581C152.308 429.366 151.805 428.113 151.357 426.863L152.104 426.592C152.547 427.826 153.043 429.057 153.578 430.256L152.852 430.581ZM250.523 428.492L249.785 428.199C250.268 426.978 250.711 425.725 251.102 424.469L251.862 424.705C251.461 425.98 251.013 427.252 250.523 428.492ZM150.144 423.037C149.791 421.752 149.482 420.438 149.228 419.131L150.007 418.978C150.259 420.266 150.561 421.561 150.911 422.827L150.144 423.037ZM252.903 420.831L252.127 420.652C252.419 419.373 252.667 418.066 252.862 416.768L253.648 416.886C253.453 418.206 253.202 419.533 252.903 420.831ZM148.607 415.165C148.451 413.841 148.346 412.496 148.289 411.166L149.085 411.131C149.139 412.445 149.244 413.768 149.396 415.072L148.607 415.165ZM254.099 412.898L253.307 412.837C253.402 411.533 253.453 410.203 253.453 408.887H254.249C254.249 410.226 254.198 411.574 254.099 412.898ZM253.45 408.357C253.437 407.044 253.374 405.714 253.266 404.407L254.058 404.34C254.169 405.666 254.233 407.012 254.246 408.348L253.45 408.357ZM149.066 407.178L148.27 407.152C148.311 405.816 148.407 404.47 148.547 403.15L149.339 403.237C149.199 404.534 149.107 405.861 149.066 407.178ZM252.782 400.485C252.572 399.187 252.311 397.883 252.006 396.608L252.779 396.423C253.091 397.717 253.355 399.041 253.568 400.357L252.782 400.485ZM149.909 399.321L149.126 399.178C149.368 397.864 149.664 396.547 150.004 395.262L150.774 395.466C150.437 396.732 150.147 398.03 149.909 399.321ZM250.936 392.804C250.536 391.557 250.081 390.307 249.584 389.093L250.319 388.79C250.822 390.024 251.286 391.293 251.694 392.558L250.936 392.804ZM151.926 391.685L151.175 391.423C151.614 390.164 152.104 388.904 152.636 387.683L153.364 388.002C152.843 389.204 152.359 390.444 151.926 391.685ZM247.955 385.493C247.369 384.323 246.73 383.156 246.058 382.03L246.739 381.619C247.424 382.763 248.073 383.946 248.668 385.136L247.955 385.493ZM155.079 384.437L154.376 384.064C155 382.885 155.674 381.718 156.384 380.589L157.055 381.013C156.359 382.123 155.694 383.274 155.079 384.437ZM243.901 378.72C243.144 377.649 242.339 376.591 241.505 375.583L242.119 375.076C242.966 376.103 243.783 377.174 244.553 378.264L243.901 378.72ZM159.289 377.751L158.65 377.276C159.442 376.205 160.285 375.153 161.157 374.145L161.758 374.668C160.902 375.656 160.072 376.696 159.289 377.751ZM238.88 372.63C237.97 371.683 237.015 370.762 236.038 369.885L236.57 369.292C237.559 370.182 238.53 371.119 239.453 372.079L238.88 372.63ZM164.454 371.776L163.894 371.212C164.839 370.271 165.828 369.356 166.84 368.492L167.356 369.098C166.36 369.949 165.383 370.848 164.454 371.776ZM233 367.363C231.959 366.566 230.877 365.794 229.78 365.074L230.215 364.407C231.329 365.138 232.43 365.919 233.483 366.732L233 367.363ZM170.448 366.642L169.977 365.998C171.05 365.211 172.167 364.455 173.296 363.754L173.716 364.43C172.603 365.125 171.505 365.868 170.448 366.642ZM226.397 363.036C225.248 362.402 224.061 361.806 222.868 361.26L223.199 360.533C224.408 361.085 225.614 361.694 226.782 362.338L226.397 363.036ZM177.14 362.472L176.771 361.764C177.951 361.149 179.167 360.568 180.389 360.046L180.701 360.779C179.501 361.295 178.305 361.866 177.14 362.472ZM219.215 359.759C217.984 359.306 216.724 358.898 215.464 358.541L215.68 357.772C216.959 358.136 218.242 358.55 219.492 359.009L219.215 359.759ZM184.382 359.363L184.125 358.608C185.381 358.177 186.673 357.791 187.962 357.457L188.159 358.228C186.893 358.56 185.62 358.942 184.382 359.363ZM211.63 357.61C210.35 357.351 209.039 357.138 207.735 356.975L207.833 356.184C209.157 356.35 210.487 356.567 211.785 356.828L211.63 357.61ZM192.016 357.39L191.876 356.605C193.18 356.372 194.514 356.184 195.841 356.05L195.92 356.844C194.615 356.978 193.301 357.16 192.016 357.39ZM203.805 356.637C202.494 356.573 201.164 356.561 199.859 356.592L199.837 355.795C201.164 355.76 202.513 355.776 203.843 355.84L203.805 356.637Z" fill="#B5B5B5"/>
<path d="M158.176 146.906L158.169 146.109C159.48 146.096 160.798 146.007 162.086 145.841L162.188 146.632C160.868 146.801 159.518 146.893 158.176 146.906ZM154.16 146.705C152.83 146.558 151.497 146.329 150.195 146.023L150.377 145.248C151.646 145.544 152.948 145.771 154.246 145.914L154.16 146.705ZM166.14 145.879L165.943 145.108C167.209 144.786 168.466 144.384 169.682 143.912L169.968 144.655C168.724 145.136 167.435 145.548 166.14 145.879ZM146.342 144.865C145.088 144.403 143.847 143.861 142.654 143.252L143.017 142.541C144.181 143.137 145.39 143.666 146.616 144.116L146.342 144.865ZM173.627 142.971L173.252 142.267C174.401 141.651 175.527 140.959 176.596 140.21L177.051 140.864C175.957 141.632 174.805 142.343 173.627 142.971ZM139.189 141.205C138.081 140.459 137.006 139.633 135.994 138.756L136.513 138.154C137.502 139.008 138.552 139.815 139.634 140.542L139.189 141.205ZM180.204 138.361L179.673 137.768C180.647 136.897 181.576 135.957 182.438 134.975L183.036 135.501C182.152 136.505 181.2 137.468 180.204 138.361ZM133.111 135.944C132.211 134.955 131.361 133.9 130.585 132.81L131.234 132.347C131.991 133.412 132.822 134.442 133.7 135.408L133.111 135.944ZM185.506 132.319L184.85 131.869C185.588 130.788 186.272 129.656 186.874 128.496L187.58 128.865C186.96 130.052 186.263 131.212 185.506 132.319ZM128.453 129.395C127.813 128.218 127.237 126.991 126.744 125.75L127.482 125.457C127.963 126.669 128.526 127.867 129.15 129.015L128.453 129.395ZM189.225 125.186L188.481 124.905C188.942 123.681 189.334 122.415 189.642 121.146L190.415 121.334C190.097 122.635 189.696 123.93 189.225 125.186ZM125.484 121.924C125.144 120.63 124.879 119.3 124.695 117.974L125.484 117.865C125.662 119.163 125.92 120.461 126.254 121.723L125.484 121.924ZM191.131 117.368L190.342 117.272C190.495 115.978 190.575 114.658 190.575 113.344C190.575 112.949 190.568 112.55 190.552 112.155L191.348 112.126C191.364 112.531 191.37 112.939 191.37 113.344C191.367 114.69 191.287 116.041 191.131 117.368ZM124.386 113.956C124.383 113.752 124.38 113.551 124.38 113.347C124.38 112.209 124.437 111.058 124.552 109.932L125.344 110.012C125.233 111.112 125.175 112.234 125.175 113.347C125.175 113.545 125.179 113.746 125.182 113.943L124.386 113.956ZM190.177 108.239C189.976 106.945 189.693 105.653 189.337 104.397L190.104 104.18C190.466 105.468 190.756 106.792 190.963 108.118L190.177 108.239ZM125.971 106.125L125.194 105.95C125.487 104.643 125.866 103.339 126.315 102.076L127.062 102.344C126.626 103.578 126.257 104.85 125.971 106.125ZM188.042 100.683C187.539 99.4774 186.953 98.2912 186.307 97.1561L186.998 96.7608C187.66 97.9246 188.258 99.1394 188.774 100.373L188.042 100.683ZM128.602 98.7249L127.89 98.3678C128.488 97.1721 129.162 95.9955 129.901 94.8764L130.566 95.3164C129.847 96.41 129.185 97.5547 128.602 98.7249ZM184.166 93.8593C183.39 92.8103 182.54 91.7963 181.646 90.843L182.225 90.2946C183.145 91.267 184.013 92.3065 184.809 93.3842L184.166 93.8593ZM132.923 92.1662L132.316 91.6497C133.181 90.6293 134.114 89.6473 135.094 88.7386L135.635 89.3221C134.68 90.2148 133.767 91.1714 132.923 92.1662ZM178.782 88.1519C177.78 87.3133 176.714 86.529 175.619 85.8211L176.052 85.1516C177.172 85.8785 178.263 86.682 179.291 87.5397L178.782 88.1519ZM138.667 86.8255L138.199 86.1814C139.281 85.3939 140.42 84.6637 141.588 84.0133L141.976 84.7084C140.837 85.3429 139.723 86.0539 138.667 86.8255ZM172.199 83.8825C171.024 83.3086 169.806 82.8017 168.571 82.3712L168.832 81.6187C170.095 82.0555 171.346 82.5785 172.549 83.1651L172.199 83.8825ZM145.511 83.0025L145.209 82.266C146.447 81.759 147.729 81.3222 149.018 80.9715L149.228 81.7399C147.971 82.0811 146.721 82.5083 145.511 83.0025ZM164.788 81.3126C163.515 81.0384 162.207 80.8376 160.906 80.7164L160.979 79.9225C162.312 80.0468 163.649 80.2509 164.953 80.5315L164.788 81.3126ZM153.072 80.93L152.957 80.1425C154.275 79.948 155.624 79.83 156.963 79.7949L156.986 80.592C155.675 80.6271 154.357 80.7419 153.072 80.93Z" fill="#B5B5B5"/>
<path d="M24.3066 318.356C17.9459 318.356 12.772 313.172 12.772 306.798C12.772 300.424 17.9459 295.24 24.3066 295.24C30.6674 295.24 35.8413 300.424 35.8413 306.798C35.8413 313.172 30.6674 318.356 24.3066 318.356ZM24.3066 296.834C18.8241 296.834 14.363 301.304 14.363 306.798C14.363 312.292 18.8241 316.762 24.3066 316.762C29.7892 316.762 34.2503 312.292 34.2503 306.798C34.2503 301.304 29.7892 296.834 24.3066 296.834Z" fill="#B5B5B5"/>
<path d="M410.121 169.882H79.5173V414.808H410.121V169.882Z" fill="white"/>
<path d="M410.917 395.605C410.917 406.65 401.962 415.605 390.917 415.605H98.7217C87.676 415.605 78.7217 406.65 78.7217 395.605V189.085C78.7217 178.039 87.676 169.085 98.7217 169.085H390.917C401.962 169.085 410.917 178.039 410.917 189.085V395.605ZM80.3127 394.01C80.3127 405.056 89.267 414.01 100.313 414.01H389.326C400.371 414.01 409.326 405.056 409.326 394.01V190.679C409.326 179.633 400.371 170.679 389.326 170.679H100.313C89.267 170.679 80.3127 179.633 80.3127 190.679V394.01Z" fill="#B5B5B5"/>
<path d="M129.471 335.258H102.424V387.705H129.471V335.258Z" fill="url(#paint1_linear_601_104)"/>
<path d="M172.428 309.103H145.381V387.705H172.428V309.103Z" fill="url(#paint2_linear_601_104)"/>
<path d="M215.384 255.161H188.338V387.706H215.384V255.161Z" fill="url(#paint3_linear_601_104)"/>
<path d="M258.341 293.457H231.294V387.705H258.341V293.457Z" fill="url(#paint4_linear_601_104)"/>
<path d="M301.298 251.893H274.251V387.705H301.298V251.893Z" fill="url(#paint5_linear_601_104)"/>
<path d="M344.255 258.987H317.208V387.705H344.255V258.987Z" fill="url(#paint6_linear_601_104)"/>
<path d="M387.211 211.957H360.164V387.706H387.211V211.957Z" fill="url(#paint7_linear_601_104)"/>
<path d="M110.583 366.894L109.861 365.472L155.035 342.442L201.622 278.857L244.274 323.595L288.121 279.654L330.648 284.833L373.328 235.73L374.528 236.779L331.294 286.516L288.7 281.332L244.248 325.875L201.782 281.335L156.095 343.692L110.583 366.894Z" fill="url(#paint8_linear_601_104)"/>
<path d="M311.375 200.118H178.263V201.712H311.375V200.118Z" fill="url(#paint9_linear_601_104)"/>
<path d="M266.442 217.655H223.193V219.249H266.442V217.655Z" fill="url(#paint10_linear_601_104)"/>
<path d="M162.742 129.395H9.18604V250.26H162.742V129.395Z" fill="white"/>
<path d="M163.537 235.057C163.537 243.894 156.374 251.057 147.537 251.057H24.3906C15.554 251.057 8.39062 243.894 8.39062 235.057V144.598C8.39062 135.761 15.5541 128.598 24.3906 128.598H147.537C156.374 128.598 163.537 135.761 163.537 144.598V235.057ZM9.98161 233.463C9.98161 242.3 17.1451 249.463 25.9816 249.463H145.946C154.783 249.463 161.946 242.3 161.946 233.463V146.192C161.946 137.355 154.783 130.192 145.946 130.192H25.9816C17.145 130.192 9.98161 137.355 9.98161 146.192V233.463Z" fill="#369AC1"/>
<path d="M64.6797 149.195H30.0471V168.846H64.6797V149.195Z" fill="#4EC2C2"/>
<path d="M142.291 151.092H79.2849V151.928H142.291V151.092Z" fill="#369AC1"/>
<path d="M142.291 158.604H79.2849V159.44H142.291V158.604Z" fill="#4EC2C2"/>
<path d="M142.291 166.116H79.2849V166.952H142.291V166.116Z" fill="#4EC2C2"/>
<path d="M53.5554 208.054H46.3228V230.508H53.5554V208.054Z" fill="#4EC2C2"/>
<path d="M60.788 197.127H53.5554V230.504H60.788V197.127Z" fill="#369AC1"/>
<path d="M80.5385 193.352H73.3059V230.367H80.5385V193.352Z" fill="#4EC2C2"/>
<path d="M87.7712 216.666H80.5386V230.364H87.7712V216.666Z" fill="#369AC1"/>
<path d="M107.522 204.844H100.289V230.476H107.522V204.844Z" fill="#4EC2C2"/>
<path d="M114.754 199.178H107.522V230.476H114.754V199.178Z" fill="#369AC1"/>
<path d="M134.505 212.435H127.272V230.31H134.505V212.435Z" fill="#4EC2C2"/>
<path d="M141.738 187.664H134.505V230.313H141.738V187.664Z" fill="#369AC1"/>
<path d="M141.738 230.731H30.3972V185.713H31.2341V229.892H141.738V230.731Z" fill="#369AC1"/>
<defs>
<linearGradient id="paint0_linear_601_104" x1="210.5" y1="515.281" x2="210.5" y2="133.471" gradientUnits="userSpaceOnUse">
<stop stop-color="#63C8C8"/>
<stop offset="1" stop-color="#D9D9D9" stop-opacity="0"/>
</linearGradient>
<linearGradient id="paint1_linear_601_104" x1="115.948" y1="335.258" x2="115.948" y2="387.705" gradientUnits="userSpaceOnUse">
<stop stop-color="#369AC1"/>
<stop offset="1" stop-color="#4EC2C2"/>
</linearGradient>
<linearGradient id="paint2_linear_601_104" x1="158.905" y1="309.103" x2="158.905" y2="387.705" gradientUnits="userSpaceOnUse">
<stop stop-color="#369AC1"/>
<stop offset="1" stop-color="#4EC2C2"/>
</linearGradient>
<linearGradient id="paint3_linear_601_104" x1="201.861" y1="255.161" x2="201.861" y2="387.706" gradientUnits="userSpaceOnUse">
<stop stop-color="#369AC1"/>
<stop offset="1" stop-color="#4EC2C2"/>
</linearGradient>
<linearGradient id="paint4_linear_601_104" x1="244.818" y1="293.457" x2="244.818" y2="387.705" gradientUnits="userSpaceOnUse">
<stop stop-color="#369AC1"/>
<stop offset="1" stop-color="#4EC2C2"/>
</linearGradient>
<linearGradient id="paint5_linear_601_104" x1="287.774" y1="251.893" x2="287.774" y2="387.705" gradientUnits="userSpaceOnUse">
<stop stop-color="#369AC1"/>
<stop offset="1" stop-color="#4EC2C2"/>
</linearGradient>
<linearGradient id="paint6_linear_601_104" x1="330.731" y1="258.987" x2="330.731" y2="387.705" gradientUnits="userSpaceOnUse">
<stop stop-color="#369AC1"/>
<stop offset="1" stop-color="#4EC2C2"/>
</linearGradient>
<linearGradient id="paint7_linear_601_104" x1="373.688" y1="211.957" x2="373.688" y2="387.706" gradientUnits="userSpaceOnUse">
<stop stop-color="#369AC1"/>
<stop offset="1" stop-color="#4EC2C2"/>
</linearGradient>
<linearGradient id="paint8_linear_601_104" x1="242.194" y1="235.73" x2="242.194" y2="366.894" gradientUnits="userSpaceOnUse">
<stop stop-color="#369AC1"/>
<stop offset="1" stop-color="#4EC2C2"/>
</linearGradient>
<linearGradient id="paint9_linear_601_104" x1="192.752" y1="201.712" x2="299.603" y2="201.712" gradientUnits="userSpaceOnUse">
<stop stop-color="#369AC1"/>
<stop offset="1" stop-color="#4EC2C2"/>
</linearGradient>
<linearGradient id="paint10_linear_601_104" x1="227.9" y1="219.249" x2="262.617" y2="219.249" gradientUnits="userSpaceOnUse">
<stop stop-color="#369AC1"/>
<stop offset="1" stop-color="#4EC2C2"/>
</linearGradient>
</defs>
</svg>
