<svg width="19" height="17" viewBox="0 0 19 17" fill="none" xmlns="http://www.w3.org/2000/svg">
<path d="M2.14498 12.1061C0.378427 11.6374 0.00438641 11.1424 0.00213315 9.35864C-0.000120109 7.0172 -0.00124674 4.67462 0.00213315 2.33203C0.00551304 0.763848 0.745709 0.00655786 2.29482 0.00427687C5.98566 -0.00142562 9.67537 -0.00142562 13.3662 0.00427687C14.8545 0.00655786 15.6093 0.777534 15.6138 2.29896C15.6206 4.7727 15.6206 7.24644 15.6138 9.72018C15.6105 11.2245 14.8432 11.9966 13.3504 12.0023C11.5568 12.0092 9.76325 11.9749 7.97191 12.0251C7.51562 12.0377 7.00864 12.211 6.62446 12.4642C5.49333 13.2112 4.4219 14.0484 3.30541 14.8182C3.07445 14.9779 2.63394 15.1558 2.49874 15.0509C2.28806 14.8866 2.18216 14.492 2.16076 14.1864C2.11344 13.5078 2.14498 12.8235 2.14498 12.1061ZM3.22317 13.5374C4.35543 12.7242 5.28039 12.0046 6.26281 11.3796C6.67291 11.1184 7.20467 10.9382 7.68575 10.9245C9.53004 10.8732 11.3766 10.9074 13.222 10.9029C14.281 10.9006 14.5255 10.6611 14.5278 9.61297C14.5334 7.19169 14.5334 4.76928 14.5266 2.348C14.5244 1.35577 14.2653 1.10372 13.2592 1.10258C9.64608 1.09915 6.03298 1.09915 2.41988 1.10258C1.31916 1.10372 1.08595 1.3398 1.08482 2.44152C1.08144 4.81148 1.08144 7.18029 1.08595 9.5491C1.0882 10.6531 1.28649 10.8766 2.41087 10.8938C3.02939 10.9029 3.24457 11.1869 3.22655 11.7674C3.21077 12.2886 3.22317 12.8086 3.22317 13.5374Z" fill="white"/>
<path d="M15.5049 15.4557C15.5049 14.7019 15.5083 14.1556 15.5038 13.6093C15.4993 13.0504 15.7607 12.8235 16.3183 12.8064C17.4822 12.7699 17.6421 12.576 17.6421 11.3842C17.6433 9.04043 17.6297 6.69671 17.6489 4.35412C17.6545 3.63903 17.5024 3.12809 16.6992 2.97412C16.5178 2.93991 16.3972 2.57723 16.2496 2.36624C16.4918 2.22025 16.7363 1.94767 16.9752 1.95224C17.8686 1.9682 18.6888 2.79734 18.7023 3.77931C18.7406 6.54388 18.7429 9.30845 18.7012 12.073C18.6854 13.1143 18.0534 13.6366 16.5797 14.0153C16.5797 14.6962 16.6124 15.4044 16.5651 16.1058C16.5448 16.4115 16.4355 16.8061 16.2237 16.9692C16.0874 17.0741 15.6491 16.8905 15.417 16.7308C14.2803 15.9439 13.1829 15.0965 12.0349 14.3266C11.6935 14.0974 11.2373 13.956 10.826 13.9366C9.73658 13.883 8.64037 13.9548 7.55205 13.8944C7.27264 13.8784 7.01014 13.5591 6.73975 13.3789C7.00225 13.1918 7.25912 12.8554 7.52951 12.8428C8.82739 12.787 10.1298 12.7961 11.4277 12.836C11.7363 12.8451 12.0732 13.0116 12.3391 13.193C13.3463 13.8818 14.3276 14.6083 15.5049 15.4557Z" fill="white"/>
<path d="M4.20767 6.81871C3.59366 6.75484 3.23089 6.45375 3.23539 5.86525C3.2399 5.2893 3.57564 4.91864 4.15698 4.9232C4.72705 4.92776 5.0887 5.27903 5.0932 5.86069C5.09658 6.44462 4.72142 6.74001 4.20767 6.81871Z" fill="white"/>
<path d="M8.75772 5.7934C8.68787 6.42866 8.40057 6.79818 7.81473 6.79932C7.23226 6.80046 6.88639 6.43892 6.88188 5.86753C6.87737 5.29158 7.23113 4.93461 7.80459 4.92434C8.39381 4.91294 8.65857 5.31097 8.75772 5.7934Z" fill="white"/>
<path d="M12.3932 5.90517C12.311 6.46744 12.0056 6.81871 11.4209 6.79932C10.8328 6.77993 10.5129 6.39445 10.5286 5.82876C10.5455 5.25281 10.9184 4.90724 11.4896 4.92434C12.0699 4.94145 12.356 5.3201 12.3932 5.90517Z" fill="white"/>
</svg>
