<svg width="15" height="15" viewBox="0 0 15 15" fill="none" xmlns="http://www.w3.org/2000/svg">
<path d="M15 6.96254C15 7.26239 15 7.56223 15 7.86225C14.9953 7.8919 14.9872 7.92138 14.9863 7.95103C14.971 8.60386 14.8281 9.23271 14.6285 9.85072C14.1428 11.3541 13.2325 12.5607 11.9865 13.5068C10.8219 14.3912 9.4914 14.8743 8.02818 14.9797C6.96794 15.0562 5.93538 14.9169 4.94016 14.5485C3.93878 14.1777 3.04327 13.6316 2.27765 12.8788C0.921464 11.5455 0.162008 9.93335 0.0227882 8.03965C-0.0325663 7.28787 0.00911631 6.53809 0.189852 5.79797C0.663366 3.85864 1.72894 2.33209 3.3869 1.22849C4.91265 0.213016 6.60563 -0.14963 8.41716 0.0547646C9.59511 0.187696 10.6874 0.587657 11.6679 1.25815C13.4576 2.48235 14.5388 4.16865 14.9146 6.30371C14.953 6.5216 14.972 6.74282 15 6.96254ZM5.63326 7.5031C5.58558 7.87341 5.72813 10.0243 5.81733 10.3068C6.94293 10.3068 8.06886 10.3068 9.19345 10.3068C9.29916 9.74544 9.42421 7.72648 9.36652 7.5031C8.12455 7.5031 6.8814 7.5031 5.63326 7.5031ZM4.68457 7.5051C4.65856 7.50243 4.64222 7.49943 4.62588 7.49943C3.41742 7.4991 2.20912 7.49943 1.00066 7.49793C0.94564 7.49793 0.9263 7.51476 0.929801 7.56906C0.942973 7.76546 0.943473 7.96336 0.967148 8.15843C1.05468 8.88255 1.25743 9.5752 1.55054 10.2425C1.57455 10.2972 1.60289 10.3148 1.66158 10.3148C2.70881 10.313 3.75621 10.3137 4.80345 10.3133C4.83229 10.3133 4.86113 10.3102 4.88864 10.3085C4.75859 9.3743 4.69207 8.44578 4.68457 7.5051ZM10.3214 7.50376C10.3132 8.44595 10.2464 9.37663 10.1178 10.3075C10.1401 10.3095 10.1617 10.3133 10.1832 10.3133C11.2414 10.3137 12.2995 10.3132 13.3577 10.3145C13.4071 10.3145 13.4329 10.2993 13.4497 10.2528C13.5616 9.94551 13.6893 9.64333 13.786 9.33132C13.9618 8.76495 14.0716 8.18541 14.0755 7.58905C14.0758 7.52442 14.0636 7.4971 13.9896 7.49727C12.7982 7.4996 11.6067 7.49893 10.4153 7.49927C10.3856 7.49927 10.3559 7.5021 10.3214 7.50376ZM5.65344 6.55442C6.89258 6.55442 8.12154 6.55442 9.35268 6.55442C9.35385 6.5336 9.35618 6.51977 9.35518 6.50628C9.30683 5.93124 9.25731 5.35637 9.21046 4.78133C9.20429 4.70487 9.17445 4.68355 9.09675 4.68388C8.03835 4.68688 6.97977 4.68705 5.92137 4.68355C5.8335 4.68322 5.80049 4.70537 5.79316 4.79399C5.74914 5.33038 5.70029 5.86627 5.65427 6.4025C5.64977 6.45147 5.65344 6.50095 5.65344 6.55442ZM4.89281 4.68505C4.85613 4.68505 4.82645 4.68505 4.79661 4.68505C3.74904 4.68505 2.70148 4.68588 1.65391 4.68372C1.59139 4.68355 1.56688 4.70937 1.54437 4.76034C1.32062 5.26492 1.16722 5.79181 1.04718 6.3287C0.992825 6.57158 0.999828 6.54609 1.21924 6.54776C2.35851 6.55608 3.49778 6.55725 4.63688 6.56308C4.70724 6.56341 4.70824 6.52643 4.71291 6.47513C4.75443 6.01087 4.79678 5.5466 4.84129 5.08268C4.85363 4.95358 4.87431 4.82548 4.89281 4.68505ZM10.1165 4.70537C10.1185 4.73935 10.119 4.75851 10.1208 4.7775C10.1785 5.34071 10.238 5.90359 10.2925 6.46696C10.2997 6.54043 10.3204 6.56375 10.3961 6.56341C11.0603 6.56042 11.7244 6.56358 12.3887 6.56108C12.8777 6.55925 13.3667 6.55275 13.8557 6.54509C13.9955 6.54292 14.0015 6.53543 13.9724 6.39933C13.8517 5.83379 13.6917 5.28024 13.4566 4.75001C13.4356 4.70271 13.4104 4.68372 13.3574 4.68388C12.3291 4.68921 11.3009 4.69254 10.2727 4.69688C10.2235 4.69721 10.1742 4.70221 10.1165 4.70537ZM7.50197 11.2633C7.50197 11.2595 7.50197 11.2557 7.50197 11.252C7.22153 11.252 6.94109 11.2505 6.66065 11.2525C6.46908 11.254 6.27751 11.2582 6.0861 11.2657C5.97689 11.27 5.96806 11.2822 5.99106 11.3844C6.11461 11.9341 6.2595 12.4777 6.48108 12.9976C6.62247 13.3294 6.79771 13.6399 7.07731 13.879C7.36275 14.1227 7.63653 14.1239 7.92414 13.8838C8.13938 13.7042 8.29228 13.477 8.41432 13.2287C8.70293 12.6421 8.87116 12.0159 9.01488 11.3821C9.03739 11.2828 9.02806 11.2747 8.92618 11.2653C8.90968 11.2638 8.89284 11.2635 8.87633 11.2635C8.41816 11.2632 7.95998 11.2633 7.50197 11.2633ZM9.02789 3.74237C9.02589 3.71904 9.02656 3.69989 9.02255 3.68173C8.98604 3.51665 8.95269 3.35073 8.91101 3.18699C8.7843 2.68908 8.63724 2.19783 8.39581 1.7409C8.26693 1.49702 8.12321 1.26264 7.90313 1.08773C7.66837 0.901162 7.39193 0.892833 7.14834 1.06558C7.08315 1.11172 7.02229 1.16603 6.96694 1.22383C6.77836 1.4204 6.64065 1.65161 6.52927 1.89782C6.28934 2.42838 6.13062 2.98492 6.0089 3.5528C5.9959 3.61377 5.9859 3.6754 5.97356 3.74237C6.99845 3.74237 8.01083 3.74237 9.02789 3.74237ZM9.01372 1.10906C9.00755 1.11522 9.00138 1.12155 8.99521 1.12771C9.00905 1.15736 9.02072 1.18835 9.03706 1.2165C9.23664 1.55832 9.39453 1.92014 9.51608 2.29478C9.66313 2.74804 9.78618 3.20914 9.91823 3.6674C9.93207 3.71555 9.94157 3.74903 10.0076 3.74886C10.9353 3.7462 11.863 3.74703 12.7907 3.7467C12.8135 3.7467 12.8363 3.74287 12.8737 3.73937C11.8968 2.3854 10.6082 1.52218 9.01372 1.10906ZM6.00224 1.12721C5.99507 1.12122 5.9879 1.11522 5.98073 1.10922C4.40129 1.53184 3.1113 2.37957 2.14276 3.72571C2.17844 3.72837 2.19962 3.73104 2.22079 3.73121C2.39303 3.73287 2.56526 3.7347 2.73766 3.7352C3.46293 3.73737 4.18821 3.7407 4.91332 3.73953C5.09572 3.7392 5.05304 3.75236 5.10022 3.59561C5.11623 3.54247 5.1304 3.48883 5.14441 3.43502C5.34465 2.66825 5.57507 1.91281 5.96722 1.217C5.98289 1.18935 5.99073 1.15736 6.00224 1.12721ZM8.98137 13.896C10.5868 13.4829 11.871 12.6235 12.8477 11.2747C12.7868 11.2702 12.7438 11.2643 12.7006 11.2642C11.8093 11.2588 10.9179 11.255 10.0266 11.2478C9.95774 11.2473 9.93207 11.2668 9.91689 11.3351C9.76517 12.0163 9.55692 12.6798 9.27282 13.3178C9.18762 13.5095 9.08424 13.6932 8.98137 13.896ZM6.03475 13.896C6.00657 13.846 5.98673 13.8138 5.96972 13.7804C5.88269 13.61 5.78815 13.4429 5.71112 13.2681C5.43619 12.6443 5.23594 11.9955 5.08255 11.3318C5.07088 11.2815 5.05938 11.2487 4.99402 11.2492C4.08851 11.2562 3.18283 11.2602 2.27731 11.2655C2.24313 11.2657 2.20879 11.2723 2.1581 11.2778C3.14198 12.6163 4.41563 13.492 6.03475 13.896Z" fill="white"/>
</svg>
