<svg width="105" height="39" viewBox="0 0 105 39" fill="none" xmlns="http://www.w3.org/2000/svg">
<path d="M14.0424 25.2372C13.5252 24.3323 13.0484 23.498 12.5466 22.6195C14.7057 21.3714 16.8391 20.1386 19.0232 18.8758C21.8839 23.8317 24.7328 28.7692 27.6148 33.7619C25.4667 35.0049 23.3355 36.2369 21.1493 37.502C21.0192 37.2859 20.8885 37.0771 20.765 36.8639C20.0635 35.6562 19.3531 34.4529 18.6698 33.2341C18.5126 32.954 18.3481 32.8621 18.0307 32.8937C12.241 33.4612 7.41371 31.5449 3.68247 27.0969C0.885704 23.7626 -0.336001 19.8402 0.0790699 15.4915C0.776242 8.17449 5.79823 2.56216 12.922 1.02952C19.7593 -0.442112 26.8508 2.85398 30.3256 9.11833C33.4927 14.8277 32.7874 22.1733 28.5926 27.1388C28.2304 27.5674 27.847 27.9775 27.4121 28.4656C26.9992 27.7475 26.6223 27.0903 26.2447 26.4339C25.3683 24.913 24.4985 23.3884 23.6074 21.8771C23.4648 21.6345 23.4781 21.4758 23.6103 21.2369C25.2449 18.2774 25.2867 15.2761 23.539 12.3887C21.7443 9.42339 18.9931 8.04585 15.5359 8.22154C11.4667 8.42809 7.96469 11.805 7.54668 15.8318C7.10222 20.1129 9.69182 24.0309 13.7198 25.1725C13.7963 25.1938 13.8771 25.2041 14.0424 25.2372Z" fill="black" fill-opacity="0.9"/>
<path d="M39.8465 16.9609H41.9623V20.7885H40.4556C39.7018 20.7885 39.0546 21.0546 38.5139 21.586C37.9725 22.1182 37.7021 22.7702 37.7021 23.5435V32.6784H33.5V23.3113C33.5 21.5713 34.1178 20.0776 35.355 18.8309C36.5906 17.5843 38.0886 16.9609 39.8465 16.9609Z" fill="black" fill-opacity="0.9"/>
<path d="M58.9744 23.9493C59.0325 24.297 59.0611 24.6454 59.0611 24.9931V32.6776H54.859V25.1673C54.859 24.7425 54.801 24.3367 54.6849 23.9493C54.4138 23.137 53.9311 22.4755 53.2362 21.9631C52.5405 21.4515 51.7581 21.195 50.889 21.195C49.7878 21.195 48.846 21.5816 48.0636 22.3549C47.2812 23.1282 46.8896 24.0662 46.8896 25.1681C46.8896 25.9031 47.0682 26.5743 47.4259 27.1837C47.783 27.7923 48.2663 28.276 48.8754 28.6332C49.4836 28.9912 50.1551 29.1698 50.8897 29.1698C52.0681 29.1698 53.0437 28.7347 53.8165 27.8651V32.8239C52.8696 33.1907 51.894 33.3752 50.8897 33.3752C48.6293 33.3752 46.6972 32.5733 45.0934 30.9686C43.4897 29.3639 42.6882 27.4306 42.6882 25.1688C42.6882 22.907 43.4897 20.9737 45.0934 19.369C46.6972 17.7643 48.6293 16.9624 50.8897 16.9624C52.9372 16.9624 54.7246 17.6291 56.2511 18.9633C57.7763 20.2952 58.685 21.9587 58.9744 23.9493Z" fill="black" fill-opacity="0.9"/>
<path d="M67.6393 16.9609H69.755V20.7885H68.2483C67.4945 20.7885 66.8473 21.0546 66.3066 21.586C65.7652 22.1182 65.4949 22.7702 65.4949 23.5435V32.6784H61.2927V23.3113C61.2927 21.5713 61.9106 20.0776 63.1477 18.8309C64.3834 17.5843 65.8813 16.9609 67.6393 16.9609Z" fill="black" fill-opacity="0.9"/>
<path d="M86.7672 23.9493C86.8252 24.297 86.8539 24.6454 86.8539 24.9931V32.6776H82.6517V25.1673C82.6517 24.7425 82.5937 24.3367 82.4776 23.9493C82.2065 23.137 81.7239 22.4755 81.0289 21.9631C80.3332 21.4515 79.5508 21.195 78.6817 21.195C77.5805 21.195 76.6387 21.5816 75.8563 22.3549C75.0739 23.1282 74.6824 24.0662 74.6824 25.1681C74.6824 25.9031 74.8609 26.5743 75.2186 27.1837C75.5757 27.7923 76.0591 28.276 76.6681 28.6332C77.2764 28.9912 77.9478 29.1698 78.6825 29.1698C79.8608 29.1698 80.8364 28.7347 81.6093 27.8651V32.8239C80.6623 33.1907 79.6867 33.3752 78.6825 33.3752C76.422 33.3752 74.4899 32.5733 72.8862 30.9686C71.2824 29.3639 70.481 27.4306 70.481 25.1688C70.481 22.907 71.2824 20.9737 72.8862 19.369C74.4899 17.7643 76.422 16.9624 78.6825 16.9624C80.7299 16.9624 82.5173 17.6291 84.0439 18.9633C85.569 20.2952 86.4777 21.9587 86.7672 23.9493Z" fill="black" fill-opacity="0.9"/>
<path d="M104.91 23.9493C104.968 24.297 104.996 24.6454 104.996 24.9931V38.3326H100.794V25.1673C100.794 24.7425 100.736 24.3367 100.62 23.9493C100.349 23.137 99.8665 22.4755 99.1715 21.9631C98.4758 21.4515 97.6934 21.195 96.8243 21.195C95.7231 21.195 94.7813 21.5816 93.9989 22.3549C93.2165 23.1282 92.8249 24.0662 92.8249 25.1681C92.8249 25.9031 93.0035 26.5743 93.3612 27.1837C93.7183 27.7923 94.2016 28.276 94.8107 28.6332C95.4189 28.9912 96.0904 29.1698 96.825 29.1698C98.0034 29.1698 98.979 28.7347 99.7518 27.8651V32.8239C98.8049 33.1907 97.8293 33.3752 96.825 33.3752C94.5646 33.3752 92.6325 32.5733 91.0287 30.9686C89.425 29.3639 88.6235 27.4306 88.6235 25.1688C88.6235 22.907 89.425 20.9737 91.0287 19.369C92.6325 17.7643 94.5646 16.9624 96.825 16.9624C98.8725 16.9624 100.66 17.6291 102.186 18.9633C103.712 20.2952 104.62 21.9587 104.91 23.9493Z" fill="black" fill-opacity="0.9"/>
</svg>
