<svg width="105" height="38" viewBox="0 0 105 38" fill="none" xmlns="http://www.w3.org/2000/svg">
<path d="M14.0424 24.5552C13.5252 23.6504 13.0484 22.816 12.5466 21.9376C14.7057 20.6895 16.8391 19.4567 19.0232 18.1939C21.8839 23.1498 24.7328 28.0873 27.6148 33.08C25.4667 34.323 23.3355 35.555 21.1493 36.82C21.0192 36.6039 20.8885 36.3952 20.765 36.182C20.0635 34.9743 19.3531 33.7709 18.6698 32.5522C18.5126 32.2721 18.3481 32.1802 18.0307 32.2118C12.241 32.7793 7.41371 30.863 3.68247 26.415C0.885704 23.0807 -0.336001 19.1583 0.0790699 14.8096C0.776242 7.49258 5.79823 1.88024 12.922 0.347602C19.7593 -1.12403 26.8508 2.17207 30.3256 8.43642C33.4927 14.1458 32.7874 21.4914 28.5926 26.4569C28.2304 26.8854 27.847 27.2956 27.4121 27.7837C26.9992 27.0655 26.6223 26.4084 26.2447 25.752C25.3683 24.2311 24.4985 22.7065 23.6074 21.1952C23.4648 20.9526 23.4781 20.7938 23.6103 20.5549C25.2449 17.5955 25.2867 14.5942 23.539 11.7068C21.7443 8.74148 18.9931 7.36394 15.5359 7.53962C11.4667 7.74618 7.96469 11.1231 7.54668 15.1499C7.10222 19.431 9.69182 23.349 13.7198 24.4906C13.7963 24.5119 13.8771 24.5222 14.0424 24.5552Z" fill="white"/>
<path d="M39.8465 16.2791H41.9623V20.1066H40.4556C39.7018 20.1066 39.0546 20.3727 38.5139 20.9042C37.9725 21.4364 37.7021 22.0884 37.7021 22.8617V31.9965H33.5V22.6294C33.5 20.8895 34.1178 19.3958 35.355 18.1491C36.5906 16.9024 38.0886 16.2791 39.8465 16.2791Z" fill="white"/>
<path d="M58.9744 23.2674C59.0325 23.6151 59.0611 23.9636 59.0611 24.3113V31.9958H54.859V24.4855C54.859 24.0606 54.801 23.6548 54.6849 23.2674C54.4138 22.4552 53.9311 21.7936 53.2362 21.2813C52.5405 20.7696 51.7581 20.5131 50.889 20.5131C49.7878 20.5131 48.846 20.8998 48.0636 21.6731C47.2812 22.4464 46.8896 23.3843 46.8896 24.4862C46.8896 25.2213 47.0682 25.8924 47.4259 26.5018C47.783 27.1104 48.2663 27.5941 48.8754 27.9514C49.4836 28.3094 50.1551 28.488 50.8897 28.488C52.0681 28.488 53.0437 28.0528 53.8165 27.1832V32.1421C52.8696 32.5089 51.894 32.6934 50.8897 32.6934C48.6293 32.6934 46.6972 31.8914 45.0934 30.2867C43.4897 28.682 42.6882 26.7488 42.6882 24.4869C42.6882 22.2251 43.4897 20.2918 45.0934 18.6872C46.6972 17.0825 48.6293 16.2805 50.8897 16.2805C52.9372 16.2805 54.7246 16.9472 56.2511 18.2814C57.7763 19.6134 58.685 21.2769 58.9744 23.2674Z" fill="white"/>
<path d="M67.6393 16.2791H69.755V20.1066H68.2483C67.4945 20.1066 66.8473 20.3727 66.3066 20.9042C65.7652 21.4364 65.4949 22.0884 65.4949 22.8617V31.9965H61.2927V22.6294C61.2927 20.8895 61.9106 19.3958 63.1477 18.1491C64.3834 16.9024 65.8813 16.2791 67.6393 16.2791Z" fill="white"/>
<path d="M86.7672 23.2674C86.8252 23.6151 86.8539 23.9636 86.8539 24.3113V31.9958H82.6517V24.4855C82.6517 24.0606 82.5937 23.6548 82.4776 23.2674C82.2065 22.4552 81.7239 21.7936 81.0289 21.2813C80.3332 20.7696 79.5508 20.5131 78.6817 20.5131C77.5805 20.5131 76.6387 20.8998 75.8563 21.6731C75.0739 22.4464 74.6824 23.3843 74.6824 24.4862C74.6824 25.2213 74.8609 25.8924 75.2186 26.5018C75.5757 27.1104 76.0591 27.5941 76.6681 27.9514C77.2764 28.3094 77.9478 28.488 78.6825 28.488C79.8608 28.488 80.8364 28.0528 81.6093 27.1832V32.1421C80.6623 32.5089 79.6867 32.6934 78.6825 32.6934C76.422 32.6934 74.4899 31.8914 72.8862 30.2867C71.2824 28.682 70.481 26.7488 70.481 24.4869C70.481 22.2251 71.2824 20.2918 72.8862 18.6872C74.4899 17.0825 76.422 16.2805 78.6825 16.2805C80.7299 16.2805 82.5173 16.9472 84.0439 18.2814C85.569 19.6134 86.4777 21.2769 86.7672 23.2674Z" fill="white"/>
<path d="M104.91 23.2674C104.968 23.6151 104.996 23.9636 104.996 24.3113V37.6508H100.794V24.4855C100.794 24.0606 100.736 23.6548 100.62 23.2674C100.349 22.4552 99.8665 21.7936 99.1715 21.2813C98.4758 20.7696 97.6934 20.5131 96.8243 20.5131C95.7231 20.5131 94.7813 20.8998 93.9989 21.6731C93.2165 22.4464 92.8249 23.3843 92.8249 24.4862C92.8249 25.2213 93.0035 25.8924 93.3612 26.5018C93.7183 27.1104 94.2016 27.5941 94.8107 27.9514C95.4189 28.3094 96.0904 28.488 96.825 28.488C98.0034 28.488 98.979 28.0528 99.7518 27.1832V32.1421C98.8049 32.5089 97.8293 32.6934 96.825 32.6934C94.5646 32.6934 92.6325 31.8914 91.0287 30.2867C89.425 28.682 88.6235 26.7488 88.6235 24.4869C88.6235 22.2251 89.425 20.2918 91.0287 18.6872C92.6325 17.0825 94.5646 16.2805 96.825 16.2805C98.8725 16.2805 100.66 16.9472 102.186 18.2814C103.712 19.6134 104.62 21.2769 104.91 23.2674Z" fill="white"/>
</svg>
