<svg width="86" height="23" viewBox="0 0 86 23" fill="none" xmlns="http://www.w3.org/2000/svg">
<path d="M22.5502 11.2687C22.5609 17.459 17.5067 22.5291 11.3084 22.5505C5.07546 22.5691 0.0053384 17.5283 4.23404e-06 11.3087C-0.00532993 5.06239 5.03012 0.000263658 11.2444 0.00293074C17.4801 0.00293074 22.5395 5.04639 22.5502 11.2687ZM11.2711 0.848396C5.5502 0.837728 0.861472 5.51846 0.84547 11.258C0.829467 16.9842 5.51287 21.6917 11.2364 21.7023C16.984 21.713 21.7047 17.0056 21.6967 11.2687C21.6887 5.54246 17.0053 0.861732 11.2711 0.848396Z" fill="white"/>
<path d="M74.2703 0.000281957C80.4846 -0.0157205 85.5574 5.04907 85.56 11.274C85.5627 17.4937 80.4899 22.5611 74.2729 22.5505C68.0613 22.5398 63.0365 17.5204 63.0072 11.3034C62.9805 5.09441 68.04 0.0162845 74.2703 0.000281957ZM84.7092 11.2874C84.7172 5.55848 80.0418 0.869751 74.3076 0.851081C68.5841 0.832412 63.882 5.51048 63.858 11.242C63.8366 16.9869 68.5387 21.705 74.2836 21.7023C80.0152 21.6997 84.7039 17.0163 84.7092 11.2874Z" fill="white"/>
<path d="M42.7506 22.5504C36.5123 22.5211 31.4581 17.4429 31.4901 11.2393C31.5248 5.01165 36.6163 -0.0371334 42.8226 0.000205784C49.1009 0.040212 54.0883 5.12101 54.0457 11.434C54.0083 17.5496 48.8955 22.5797 42.7506 22.5504ZM42.7799 21.7023C48.5088 21.6996 53.1895 17.0162 53.1975 11.282C53.2029 5.55041 48.5301 0.861674 42.7959 0.848338C37.0537 0.835003 32.3436 5.54507 32.3543 11.2926C32.3623 17.0215 37.0537 21.7049 42.7799 21.7023Z" fill="white"/>
<path d="M17.3067 11.3113C17.3067 12.1888 17.336 13.069 17.3013 13.9464C17.224 15.9307 15.9491 17.2483 13.9648 17.315C12.2259 17.3736 10.4816 17.363 8.74267 17.3256C6.609 17.2776 5.30746 16.0187 5.22745 13.8744C5.16344 12.1515 5.16344 10.4232 5.22745 8.70027C5.30746 6.55594 6.59033 5.30774 8.74 5.24373C10.4309 5.19306 12.1245 5.19306 13.8155 5.2464C15.9758 5.31308 17.2347 6.60661 17.3067 8.77228C17.336 9.61775 17.312 10.4632 17.312 11.3113C17.3093 11.3113 17.3067 11.3113 17.3067 11.3113ZM6.33696 11.266C6.32095 11.266 6.30495 11.266 6.28895 11.266C6.28895 11.8848 6.28362 12.5035 6.29162 13.1223C6.29428 13.3997 6.31562 13.6744 6.33696 13.9518C6.43831 15.2906 7.13975 16.1174 8.47329 16.1734C10.3563 16.2535 12.2499 16.2401 14.1328 16.1681C15.3037 16.1228 16.0825 15.3893 16.1385 14.2158C16.2292 12.2688 16.2318 10.3112 16.1412 8.36422C16.0825 7.14536 15.2904 6.42525 14.0582 6.37991C12.2045 6.31323 10.3456 6.30523 8.49463 6.37991C7.16642 6.43325 6.41964 7.25471 6.34763 8.58292C6.29962 9.47373 6.33696 10.3725 6.33696 11.266Z" fill="white"/>
<path d="M71.7098 14.0745C70.7043 13.9011 69.9709 13.3944 69.5681 12.3516C69.8989 12.3516 70.1629 12.3516 70.4269 12.3516C69.4108 11.8315 68.768 11.0954 68.6907 9.88184C69.0241 9.96718 69.3121 10.0419 69.6002 10.1165C68.72 9.14039 68.4506 8.09489 69.0347 6.81736C70.4216 8.35893 72.0699 9.25774 74.1235 9.38576C74.1422 9.02837 74.1289 8.70565 74.1822 8.39361C74.4783 6.64667 76.5026 5.73452 77.9481 6.75068C78.4549 7.1054 78.8469 7.07607 79.327 6.86003C79.5164 6.77469 79.7084 6.69467 79.8978 6.61199C79.9324 6.64133 79.9671 6.67067 80.0018 6.70001C79.7271 7.07607 79.455 7.45213 79.1456 7.87619C79.5217 7.78018 79.8604 7.69216 80.1991 7.60415C80.2205 7.62815 80.2418 7.65482 80.2632 7.67883C79.9911 7.96421 79.6977 8.23358 79.4604 8.54296C79.3083 8.74299 79.151 8.99903 79.1403 9.2364C79.0016 12.5303 76.892 15.2507 73.8301 15.9921C71.9339 16.4509 70.1229 16.2108 68.3733 15.1947C69.0134 15.1013 69.6082 15.072 70.1656 14.912C70.715 14.7546 71.2297 14.4666 71.7578 14.2345C71.7418 14.1838 71.7258 14.1305 71.7098 14.0745Z" fill="white"/>
<path d="M45.1084 17.3495C45.1084 15.7599 45.1084 14.237 45.1084 12.6555C45.6231 12.6555 46.1192 12.6555 46.6553 12.6555C46.7353 12.0287 46.81 11.4553 46.8926 10.8205C46.2819 10.8205 45.7164 10.8205 45.111 10.8205C45.111 10.2871 45.079 9.80167 45.1217 9.32427C45.159 8.91087 45.4897 8.77218 45.8605 8.75351C46.1992 8.73751 46.5406 8.75084 46.954 8.75084C46.954 8.2441 46.9646 7.78003 46.9433 7.31595C46.938 7.23327 46.7913 7.09459 46.7059 7.09192C46.1058 7.07858 45.4924 7.01991 44.9057 7.11859C43.8975 7.28928 43.2734 8.08407 43.2094 9.16691C43.1774 9.68432 43.2041 10.2044 43.2041 10.7912C42.6626 10.7912 42.1692 10.7912 41.6438 10.7912C41.6438 11.4366 41.6438 12.01 41.6438 12.6341C42.1559 12.6341 42.636 12.6341 43.156 12.6341C43.156 14.2184 43.156 15.7519 43.156 17.3175C42.996 17.3282 42.852 17.3469 42.7106 17.3469C41.017 17.3495 39.3234 17.3495 37.6299 17.3469C36.9044 17.3469 36.7017 17.1442 36.7017 16.4134C36.699 12.9915 36.699 9.57231 36.7017 6.15044C36.7017 5.39565 36.8991 5.19829 37.6592 5.19829C41.0811 5.19562 44.5003 5.19562 47.9221 5.19829C48.6449 5.19829 48.8609 5.41166 48.8609 6.12377C48.8636 9.56164 48.8636 12.9968 48.8609 16.4347C48.8609 17.1228 48.6449 17.3415 47.9568 17.3442C47.026 17.3522 46.0978 17.3495 45.1084 17.3495Z" fill="white"/>
<path d="M14.3783 11.2554C14.3863 12.9944 12.9941 14.3946 11.2578 14.3919C9.54821 14.3892 8.15332 13.0024 8.13999 11.2954C8.12665 9.57516 9.53754 8.15894 11.2685 8.15894C12.9834 8.1616 14.373 9.54315 14.3783 11.2554ZM13.2928 11.2634C13.2821 10.1619 12.3433 9.23377 11.2551 9.24977C10.1376 9.26578 9.24416 10.1753 9.25216 11.2901C9.26016 12.4049 10.1723 13.3117 11.2818 13.3064C12.3726 13.2984 13.3008 12.3569 13.2928 11.2634Z" fill="white"/>
<path d="M14.5303 8.75087C14.1329 8.76154 13.8075 8.46816 13.7862 8.07877C13.7648 7.66804 14.0796 7.31865 14.485 7.30531C14.8877 7.29198 15.2371 7.6307 15.2344 8.03343C15.2344 8.42282 14.9224 8.7402 14.5303 8.75087Z" fill="white"/>
</svg>
