<svg width="42" height="106" viewBox="0 0 42 106" fill="none" xmlns="http://www.w3.org/2000/svg">
<path d="M6.02109 1.86033C9.8632 3.73978 13.3077 6.03452 16.2667 8.68593C18.205 10.3471 20.2481 12.2665 22.3327 14.3704C24.582 16.6115 26.6076 18.9907 28.395 21.491C29.3505 22.8404 30.1822 24.2483 30.8845 25.7054C31.6382 27.2091 32.2065 28.7792 32.5824 30.3967C32.9929 32.0482 33.142 33.7557 33.0266 35.4834C32.9422 37.227 32.5517 38.9823 31.8658 40.7011L31.7427 40.984C31.6387 40.9369 31.542 40.8705 31.4361 40.815C27.419 38.7355 22.4752 37.8136 17.3486 38.1879C14.7477 38.3993 12.1657 39.0171 9.75983 40.0035C7.23902 41.0355 5.02537 42.523 3.33022 44.3241C2.40233 45.2561 1.65527 46.2796 1.11716 47.3562C0.503141 48.5603 0.236648 49.8246 0.337945 51.053C0.475559 52.2401 0.94053 53.3607 1.70246 54.3416C2.46438 55.3224 3.5061 56.1414 4.75949 56.7451C7.03099 57.8376 9.8245 58.2271 12.6543 57.8459C15.2466 57.5081 17.789 56.7826 20.1362 55.7108C22.4537 54.6713 24.5925 53.3781 26.4769 51.8767C28.8238 49.9993 30.7867 47.862 32.2813 45.5565C32.7391 45.9418 33.1594 46.3535 33.5394 46.789C35.8077 49.3434 37.2491 52.3286 37.7595 55.5289C38.2622 58.508 38.1672 61.5841 37.4778 64.6527C36.8934 67.3332 35.8951 69.9876 34.5049 72.5571C33.2616 74.7257 31.7805 76.8259 30.0796 78.8324C27.4575 81.9889 24.4288 84.9533 21.0478 87.6723C18.7967 89.5087 16.3887 91.2259 13.8445 92.8092C11.7933 94.0703 10.2597 94.9336 9.05156 95.5831C8.0137 96.1592 7.31242 96.5189 6.78333 96.8136L7.17931 96.1349C8.30832 94.2 9.28968 92.439 10.0737 90.9425C11.6306 87.9519 12.4648 86.0038 12.0397 85.8789C11.6147 85.7541 10.186 87.3952 8.13154 90.1979C7.09317 91.6018 5.91868 93.2828 4.65043 95.1696L4.16932 95.8851C3.95822 96.1916 3.77956 96.5086 3.63532 96.8325C3.54698 97.0411 3.48144 97.2532 3.4394 97.4663C3.38523 97.7373 3.37941 98.0083 3.42211 98.2715C3.51005 98.8135 3.82368 99.2984 4.31739 99.6558C4.98748 100.076 5.76986 100.385 6.62356 100.565L8.53344 101.115C19.2236 104.001 28.165 105.81 28.4886 105.121C28.8123 104.432 20.4173 101.524 9.72521 98.6284L8.31104 98.2586C8.94578 98.0531 9.56731 97.8167 10.1716 97.551C11.9897 96.7859 13.7465 95.9211 15.4269 94.964C18.2104 93.4091 20.8333 91.6745 23.2622 89.7823C26.9248 86.9714 30.1972 83.8735 33.0119 80.5525C34.8745 78.3717 36.49 76.0846 37.8373 73.7209C39.3935 70.8864 40.5064 67.9539 41.15 64.9918C41.9199 61.5719 42.0186 58.1437 41.4426 54.8265C40.8356 51.1276 39.1427 47.6827 36.4886 44.7455C35.7288 43.8962 34.85 43.1196 33.8655 42.4277C34.0365 42.046 34.2074 41.6643 34.3431 41.2816C35.0772 39.3499 35.4824 37.3814 35.5478 35.429C35.621 33.5352 35.4084 31.668 34.9145 29.8651C34.4647 28.1395 33.8073 26.4684 32.9503 24.8725C32.1771 23.3662 31.2691 21.9137 30.2323 20.5244C28.3314 17.9999 26.1744 15.611 23.7787 13.3771C21.5717 11.283 19.4349 9.41392 17.3681 7.76981C14.2179 5.16649 10.5291 2.98769 6.42125 1.30394C5.32198 0.870182 4.17081 0.5071 2.9779 0.217903C2.1559 0.0411502 1.75328 -0.0359005 1.69603 0.0209606C1.63878 0.0778216 3.31128 0.609856 6.02486 1.8771L6.02109 1.86033ZM29.2218 43.5303C29.5246 43.6826 29.809 43.8566 30.0933 44.0306C28.6767 46.2708 26.767 48.3377 24.4604 50.1274C22.7723 51.4316 20.8666 52.5507 18.8093 53.4459C16.7987 54.338 14.6273 54.9325 12.4198 55.1952C10.3223 55.4535 8.26236 55.143 6.59483 54.3172C5.76844 53.9199 5.08117 53.3808 4.57779 52.735C4.0744 52.0893 3.7662 51.3514 3.67327 50.5695C3.69 48.9612 4.48277 47.3427 5.89718 46.0293C7.26283 44.6122 9.03468 43.448 11.0438 42.6478C13.0439 41.8648 15.1798 41.386 17.3233 41.2402C19.4762 41.0839 21.6049 41.2016 23.6245 41.5887C25.6548 41.9663 27.546 42.6171 29.2181 43.5135" fill="#4EC2C2"/>
</svg>
